<svg xmlns="http://www.w3.org/2000/svg" width="23.428" height="23.043" viewBox="0 0 23.428 23.043">
  <g id="svgexport-6_21_" data-name="svgexport-6 (21)" transform="translate(0 -0.352)">
    <path id="Path_1026" data-name="Path 1026" d="M18.258,81.97c.062,0,.125,0,.187.006V74.449H.1V87.463A1.871,1.871,0,0,0,1.97,89.332H12.34a6.168,6.168,0,0,1-.142-1.3A6.066,6.066,0,0,1,18.258,81.97ZM4.321,79.654H13.1a.4.4,0,0,1,0,.793H4.321a.4.4,0,0,1,0-.793Zm5.255,4.474H4.321a.4.4,0,1,1,0-.793H9.576a.4.4,0,1,1,0,.793Zm0,0" transform="translate(-0.096 -69.901)" fill="#fff"/>
    <path id="Path_1027" data-name="Path 1027" d="M232.966,221.25a5.267,5.267,0,1,0,5.267,5.267A5.267,5.267,0,0,0,232.966,221.25Zm3.29,3.93-3.76,3.6a.394.394,0,0,1-.272.108.418.418,0,0,1-.283-.113l-2.135-2.141a.4.4,0,0,1,.561-.561l1.863,1.863,3.483-3.324a.395.395,0,0,1,.561.011A.4.4,0,0,1,236.256,225.18Zm0,0" transform="translate(-214.804 -208.389)" fill="#fff"/>
    <path id="Path_1028" data-name="Path 1028" d="M18.349,2.22A1.871,1.871,0,0,0,16.48.352H13.988V1.6a.4.4,0,0,1-.793,0V.352H5.153V1.6a.4.4,0,1,1-.793,0V.352H1.869A1.871,1.871,0,0,0,0,2.22v1.54H18.343V2.22Zm0,0" fill="#fff"/>
  </g>
</svg>
