<svg id="svgexport-6_13_" data-name="svgexport-6 (13)" xmlns="http://www.w3.org/2000/svg" width="11.162" height="13.622" viewBox="0 0 11.162 13.622">
  <path id="Path_1005" data-name="Path 1005" d="M10.223,10.253V6.007a4.694,4.694,0,0,0-3.449-4.52v-.3A1.187,1.187,0,0,0,5.588,0H5.574A1.187,1.187,0,0,0,4.388,1.186v.279A4.694,4.694,0,0,0,.851,6.007V10.3A1.751,1.751,0,0,0,0,11.792a.266.266,0,0,0,.266.266H4.172v.155a1.409,1.409,0,1,0,2.818,0v-.155H10.9a.266.266,0,0,0,.266-.266A1.757,1.757,0,0,0,10.223,10.253ZM4.92,1.321V1.186A.654.654,0,0,1,5.574.532h.015a.654.654,0,0,1,.653.653v.136ZM6.458,12.213a.877.877,0,1,1-1.754,0v-.155H6.458Zm.266-.687H.563a1.227,1.227,0,0,1,.621-.8H6.153a.266.266,0,1,0,0-.532H1.383V6.008a4.154,4.154,0,1,1,8.308,0v4.415a.266.266,0,0,0,.168.247,1.23,1.23,0,0,1,.74.856H6.724Zm0,0"/>
  <path id="Path_1006" data-name="Path 1006" d="M260.028,383.121a.266.266,0,1,0,.188.078A.268.268,0,0,0,260.028,383.121Zm0,0" transform="translate(-252.851 -372.928)"/>
</svg>
