<svg id="svgexport-6_39_" data-name="svgexport-6 (39)" xmlns="http://www.w3.org/2000/svg" width="26.713" height="24" viewBox="0 0 26.713 24">
  <path id="Path_1473" data-name="Path 1473" d="M246.522,100a.522.522,0,1,0,.522.522A.522.522,0,0,0,246.522,100Zm0,0" transform="translate(-233.165 -94.783)"/>
  <path id="Path_1474" data-name="Path 1474" d="M80.522,261.043a.522.522,0,1,0-.522-.522A.522.522,0,0,0,80.522,261.043Zm0,0" transform="translate(-75.826 -246.435)"/>
  <path id="Path_1475" data-name="Path 1475" d="M17.53,0c-4.7,0-8.552,3.238-8.85,7.318C4.207,7.542,0,10.768,0,15.13a7.29,7.29,0,0,0,2.035,4.99A3.173,3.173,0,0,1,1.2,23.109.522.522,0,0,0,1.565,24a5.755,5.755,0,0,0,3.987-1.612,11.89,11.89,0,0,0,3.63.568c4.7,0,8.551-3.238,8.85-7.316a11.732,11.732,0,0,0,3.128-.557A5.755,5.755,0,0,0,25.148,16.7a.522.522,0,0,0,.369-.891,3.173,3.173,0,0,1-.838-2.989,7.291,7.291,0,0,0,2.035-4.99C26.713,3.293,22.182,0,17.53,0ZM9.183,21.913A10.547,10.547,0,0,1,5.608,21.3a.522.522,0,0,0-.578.132,4.708,4.708,0,0,1-2.342,1.39,4.219,4.219,0,0,0,.318-3.105.521.521,0,0,0-.128-.221A6.27,6.27,0,0,1,1.043,15.13c0-3.677,3.727-6.783,8.139-6.783,4.166,0,7.826,2.9,7.826,6.783C17.009,18.87,13.5,21.913,9.183,21.913Zm14.651-9.724a.523.523,0,0,0-.128.221,4.219,4.219,0,0,0,.318,3.105,4.706,4.706,0,0,1-2.342-1.39.522.522,0,0,0-.578-.132,10.278,10.278,0,0,1-3.074.6,7.468,7.468,0,0,0-2.819-5.2h6.805a.522.522,0,1,0,0-1.043H13.609A9.731,9.731,0,0,0,9.726,7.32c.3-3.5,3.686-6.276,7.8-6.276,4.412,0,8.139,3.106,8.139,6.783A6.27,6.27,0,0,1,23.834,12.189Zm0,0"/>
  <path id="Path_1476" data-name="Path 1476" d="M127.1,260h-6.574a.522.522,0,0,0,0,1.043H127.1a.522.522,0,0,0,0-1.043Zm0,0" transform="translate(-113.739 -246.435)"/>
  <path id="Path_1477" data-name="Path 1477" d="M89.183,320H80.522a.522.522,0,1,0,0,1.043h8.661a.522.522,0,0,0,0-1.043Zm0,0" transform="translate(-75.826 -303.304)"/>
  <path id="Path_1478" data-name="Path 1478" d="M293.1,100h-6.574a.522.522,0,0,0,0,1.043H293.1a.522.522,0,0,0,0-1.043Zm0,0" transform="translate(-271.078 -94.783)"/>
</svg>
