<svg xmlns="http://www.w3.org/2000/svg" width="20.109" height="20.109" viewBox="0 0 20.109 20.109">
  <g id="svgexport-6_26_" data-name="svgexport-6 (26)" transform="translate(0)">
    <g id="Group_319" data-name="Group 319" transform="translate(0)">
      <path id="Path_1037" data-name="Path 1037" d="M17.164,2.945A10.055,10.055,0,0,0,2.945,17.164,10.055,10.055,0,0,0,17.164,2.945Zm-.417,13.8A9.466,9.466,0,0,1,3.361,3.362,9.466,9.466,0,0,1,16.748,16.748Z" transform="translate(0 0)"/>
      <path id="Path_1038" data-name="Path 1038" d="M46.987,85.151a8.019,8.019,0,0,1-2.852.629V84.747a.295.295,0,1,0-.589,0V85.78a8.054,8.054,0,0,1-5.207-2.16l.727-.727a.295.295,0,1,0-.417-.417l-.727.727A8.054,8.054,0,0,1,35.762,78h1.032a.295.295,0,0,0,0-.589H35.762a8.062,8.062,0,0,1,2.157-5.21l.731.731a.295.295,0,1,0,.417-.417l-.73-.73a8.151,8.151,0,0,1,1.052-.828.295.295,0,0,0-.325-.491,8.675,8.675,0,0,0,8.154,15.232.295.295,0,0,0-.229-.543Z" transform="translate(-33.786 -67.647)"/>
      <path id="Path_1039" data-name="Path 1039" d="M167.47,37.707a8.681,8.681,0,0,0-9.834-1.713.295.295,0,0,0,.252.533,8,8,0,0,1,3.155-.765v1.033a.295.295,0,1,0,.589,0V35.762a8.054,8.054,0,0,1,5.207,2.16l-.727.727a.295.295,0,1,0,.417.417l.727-.727a8.054,8.054,0,0,1,2.16,5.207h-1.032a.295.295,0,1,0,0,.589h1.033a8.045,8.045,0,0,1-2.158,5.209l-.73-.73a.295.295,0,0,0-.417.417l.73.73a8.113,8.113,0,0,1-1.312.994.295.295,0,1,0,.306.5,8.669,8.669,0,0,0,4.176-7.418A8.617,8.617,0,0,0,167.47,37.707Z" transform="translate(-151.283 -33.786)"/>
      <path id="Path_1040" data-name="Path 1040" d="M198.3,154.834l-2.979,2.98a.882.882,0,0,0-.762,0l-1.613-1.612a.295.295,0,0,0-.417.417l1.613,1.612a.884.884,0,1,0,1.595,0l2.98-2.98a.295.295,0,1,0-.417-.417Zm-3.36,4.071a.295.295,0,1,1,.295-.295A.295.295,0,0,1,194.942,158.906Z" transform="translate(-184.888 -148.67)"/>
      <path id="Path_1041" data-name="Path 1041" d="M224.376,328.089a.295.295,0,0,0,0-.589h-2.082a.295.295,0,1,0,0,.589Z" transform="translate(-213.281 -314.637)"/>
    </g>
  </g>
</svg>
