<svg xmlns="http://www.w3.org/2000/svg" width="20.102" height="20.109" viewBox="0 0 20.102 20.109">
  <g id="svgexport-6_24_" data-name="svgexport-6 (24)" transform="translate(-0.025 0.017)">
    <path id="Path_1032" data-name="Path 1032" d="M17.633,3.422a.314.314,0,0,0-.071-.077,10.032,10.032,0,0,0-14.987,0,.314.314,0,0,0-.068.074v.008a10.051,10.051,0,1,0,15.134,0ZM17.319,16.05a11.236,11.236,0,0,0-2.258-1,15.948,15.948,0,0,0,.765-4.7h3.661a9.377,9.377,0,0,1-2.167,5.7ZM.657,10.35H4.318a15.948,15.948,0,0,0,.765,4.7,11.236,11.236,0,0,0-2.258,1,9.377,9.377,0,0,1-2.167-5.7ZM2.848,4a11.27,11.27,0,0,0,2.246,1,15.929,15.929,0,0,0-.776,4.729H.657A9.377,9.377,0,0,1,2.848,4ZM10.386,5.74a16.545,16.545,0,0,0,4.083-.572A15.547,15.547,0,0,1,15.2,9.722H10.386Zm0-.628V.632c1.592.177,2.984,1.695,3.863,3.943a15.934,15.934,0,0,1-3.863.536Zm-.628,0a15.932,15.932,0,0,1-3.863-.536C6.774,2.327,8.165.81,9.758.632Zm0,.628V9.722H4.946a15.547,15.547,0,0,1,.729-4.554,16.546,16.546,0,0,0,4.083.572ZM4.946,10.35H9.758V14.3a16.54,16.54,0,0,0-4.083.575,15.572,15.572,0,0,1-.729-4.523Zm4.812,4.576V19.44c-1.6-.179-3-1.709-3.876-3.975a15.926,15.926,0,0,1,3.876-.539Zm.628,0a15.928,15.928,0,0,1,3.876.539c-.873,2.266-2.277,3.8-3.876,3.975Zm0-.628V10.35H15.2a15.573,15.573,0,0,1-.729,4.521,16.54,16.54,0,0,0-4.083-.573Zm5.44-4.576a15.929,15.929,0,0,0-.776-4.729A11.269,11.269,0,0,0,17.3,4a9.377,9.377,0,0,1,2.191,5.724Zm1.044-6.2a10.79,10.79,0,0,1-2.032.879A8.416,8.416,0,0,0,12.512.936,9.423,9.423,0,0,1,16.87,3.522ZM7.631.936A8.372,8.372,0,0,0,5.307,4.4a10.79,10.79,0,0,1-2.032-.879A9.423,9.423,0,0,1,7.631.936ZM3.251,16.529a10.75,10.75,0,0,1,2.042-.889,8.4,8.4,0,0,0,2.337,3.5,9.423,9.423,0,0,1-4.378-2.609Zm9.266,2.609a8.516,8.516,0,0,0,2.337-3.5,10.751,10.751,0,0,1,2.042.889,9.423,9.423,0,0,1-4.383,2.609Z"/>
  </g>
</svg>
