<svg xmlns="http://www.w3.org/2000/svg" width="80.001" height="53.334" viewBox="0 0 80.001 53.334">
  <path id="Path_935" data-name="Path 935" d="M75.9,85.333H4.1a4.115,4.115,0,0,0-4.1,4.1v45.129a4.115,4.115,0,0,0,4.1,4.1H75.9a4.115,4.115,0,0,0,4.1-4.1V89.436A4.115,4.115,0,0,0,75.9,85.333Zm-1.54,3.077-32,24a4.289,4.289,0,0,1-4.72,0l-32-24ZM57.266,113.994,74.7,135.533c.018.022.039.038.058.058H5.241c.018-.02.04-.036.058-.058l17.436-21.539a1.539,1.539,0,0,0-2.392-1.937L3.077,133.386V90.333L35.8,114.872a7.343,7.343,0,0,0,8.41,0L76.923,90.333v43.053L59.658,112.057a1.539,1.539,0,0,0-2.392,1.937Z" transform="translate(0 -85.333)" fill="#f37f72"/>
</svg>
