<svg xmlns="http://www.w3.org/2000/svg" width="27" height="27" viewBox="0 0 27 27">
  <g id="Group_5" data-name="Group 5" transform="translate(-266.345 -80.114)">
    <path id="Path_16" data-name="Path 16" d="M279.845,107.114h0a13.5,13.5,0,0,1-13.5-13.5h0a13.5,13.5,0,0,1,13.5-13.5h0a13.5,13.5,0,0,1,13.5,13.5h0A13.5,13.5,0,0,1,279.845,107.114Z" transform="translate(0 0)" fill="#3e5c9a"/>
    <path id="Path_17" data-name="Path 17" d="M293.912,110.62H297.2v-8.229h2.293l.244-2.755H297.2V98.066c0-.65.13-.906.758-.906h1.779V94.3H297.46c-2.445,0-3.548,1.077-3.548,3.139v2.2H292.2v2.79h1.709Z" transform="translate(-16.124 -8.846)" fill="#fff"/>
  </g>
</svg>
