<svg xmlns="http://www.w3.org/2000/svg" width="20.978" height="18.539" viewBox="0 0 20.978 18.539">
  <g id="svgexport-6_22_" data-name="svgexport-6 (22)" transform="translate(-6.07 -8.155)">
    <g id="_x34_3-Love" transform="translate(6.07 8.155)">
      <g id="Layer_44">
        <path id="Path_1029" data-name="Path 1029" d="M26.036,10.7A5.861,5.861,0,0,0,21.2,8.155a6.947,6.947,0,0,0-4.568,1.86l-.077.076-.1-.1a6.922,6.922,0,0,0-4.541-1.834A5.86,5.86,0,0,0,7.083,10.7,5.928,5.928,0,0,0,6.5,16.258a12.8,12.8,0,0,0,3.424,4.328c.387.364.779.729,1.185,1.107,1.349,1.255,2.878,2.677,4.9,4.7l.135.135a.586.586,0,0,0,.412.17h.014a.586.586,0,0,0,.418-.19c.037-.04.071-.074.112-.115,2.022-2.021,3.553-3.444,4.9-4.7.4-.376.8-.74,1.183-1.1a12.816,12.816,0,0,0,3.424-4.328A5.928,5.928,0,0,0,26.036,10.7Z" transform="translate(-6.07 -8.155)" fill="#e68577"/>
      </g>
    </g>
  </g>
</svg>
