<svg xmlns="http://www.w3.org/2000/svg" width="22.009" height="19.449" viewBox="0 0 22.009 19.449">
  <g id="svgexport-6_22_" data-name="svgexport-6 (22)" transform="translate(-6.07 -8.155)">
    <g id="_x34_3-Love" transform="translate(6.07 8.155)">
      <g id="Layer_44">
        <path id="Path_1029" data-name="Path 1029" d="M27.016,10.821a6.149,6.149,0,0,0-5.069-2.665,7.288,7.288,0,0,0-4.792,1.951l-.08.08-.108-.106A7.262,7.262,0,0,0,12.2,8.155a6.148,6.148,0,0,0-5.069,2.665,6.22,6.22,0,0,0-.607,5.835,13.43,13.43,0,0,0,3.593,4.54c.406.382.818.765,1.243,1.161,1.416,1.317,3.02,2.809,5.14,4.927l.141.141a.615.615,0,0,0,.433.179h.015a.614.614,0,0,0,.438-.2c.039-.042.074-.077.117-.12,2.121-2.12,3.727-3.613,5.143-4.93.424-.395.835-.777,1.241-1.159a13.445,13.445,0,0,0,3.592-4.54A6.22,6.22,0,0,0,27.016,10.821Z" transform="translate(-6.07 -8.155)" fill="#b4b4b4"/>
      </g>
    </g>
  </g>
</svg>
