<svg xmlns="http://www.w3.org/2000/svg" width="22.268" height="20.735" viewBox="0 0 22.268 20.735">
  <g id="svgexport-6_19_" data-name="svgexport-6 (19)" transform="translate(0 -17.047)">
    <g id="Group_306" data-name="Group 306" transform="translate(0.001 17.047)">
      <g id="Group_305" data-name="Group 305" transform="translate(0 0)">
        <g id="Group_304" data-name="Group 304">
          <path id="Path_1022" data-name="Path 1022" d="M21.895,26.417,18.52,23.042v-3.9a1.276,1.276,0,0,0-2.553,0V20.49l-2.513-2.513a3.358,3.358,0,0,0-4.642,0L.374,26.417A1.277,1.277,0,0,0,2.18,28.222l8.437-8.438a.753.753,0,0,1,1.033,0l8.439,8.439a1.277,1.277,0,1,0,1.806-1.805Z" transform="translate(-0.001 -17.047)" fill="#b4b4b4"/>
          <path id="Path_1023" data-name="Path 1023" d="M77.119,127.931a.626.626,0,0,0-.887,0l-7.422,7.42a.628.628,0,0,0-.184.444v5.412a2.3,2.3,0,0,0,2.3,2.3H74.6v-5.691H78.75v5.691h3.675a2.3,2.3,0,0,0,2.3-2.3V135.8a.626.626,0,0,0-.184-.444Z" transform="translate(-65.542 -122.772)" fill="#b4b4b4"/>
        </g>
      </g>
    </g>
  </g>
</svg>
