<svg xmlns="http://www.w3.org/2000/svg" xmlns:xlink="http://www.w3.org/1999/xlink" width="174.195" height="91.158" viewBox="0 0 174.195 91.158">
  <defs>
    <linearGradient id="linear-gradient" x1="1.186" y1="0.093" x2="0.018" y2="0.786" gradientUnits="objectBoundingBox">
      <stop offset="0" stop-color="#818386"/>
      <stop offset="0.008" stop-color="#838588"/>
      <stop offset="0.15" stop-color="#a9aaac"/>
      <stop offset="0.297" stop-color="#c8c9ca"/>
      <stop offset="0.45" stop-color="#e0e0e1"/>
      <stop offset="0.612" stop-color="#f1f1f2"/>
      <stop offset="0.787" stop-color="#fbfbfb"/>
      <stop offset="1" stop-color="#fff"/>
    </linearGradient>
    <linearGradient id="linear-gradient-2" x1="1.185" y1="-0.027" x2="-0.034" y2="0.895" xlink:href="#linear-gradient"/>
    <linearGradient id="linear-gradient-3" x1="-0.441" y1="0.632" x2="0.749" y2="0.427" xlink:href="#linear-gradient"/>
    <linearGradient id="linear-gradient-4" x1="-0.404" y1="0.333" x2="0.982" y2="0.658" xlink:href="#linear-gradient"/>
    <linearGradient id="linear-gradient-5" x1="0.385" y1="-0.478" x2="0.576" y2="1.043" xlink:href="#linear-gradient"/>
    <linearGradient id="linear-gradient-6" x1="1.358" y1="0.294" x2="0.006" y2="0.619" xlink:href="#linear-gradient"/>
    <linearGradient id="linear-gradient-7" x1="-0.206" y1="0.82" x2="0.701" y2="0.266" xlink:href="#linear-gradient"/>
  </defs>
  <g id="Group_2" data-name="Group 2" transform="translate(-201.48 -625.47)">
    <g id="Group_1" data-name="Group 1" transform="translate(201.48 625.47)">
      <path id="Path_1" data-name="Path 1" d="M260.909,646.028a47.079,47.079,0,0,1-11.151,9.558,11.27,11.27,0,0,1-7.965.708c-1.593-.177-2.655-1.416-3.54-2.655a3.456,3.456,0,0,1-.354-1.923.391.391,0,0,1,0-.048l.525-4.2a.377.377,0,0,0,0-.047v-.33c-.152,0-.3.13-.455.167a.327.327,0,0,0-.135.058,41.15,41.15,0,0,0-8.083,8.447c-.354.531-2.124.708-3.186,1.062-2.124.531-1.77-.354-2.832-.708s-1.416-.885-.531-3.717a20.129,20.129,0,0,1,3.328-7.385.282.282,0,0,0,.041-.109,4.8,4.8,0,0,1,.347-.649,77.886,77.886,0,0,0-10.026,6.854.388.388,0,0,0-.1.118l-1.015,1.862a.31.31,0,0,0-.016.032l-.5,1.156a.379.379,0,0,1-.079.117,3.633,3.633,0,0,0-.657.834l-1.77,2.655c-1.59,2.649-3.884,3.36-6.707,2.835l-.038-.009a25.141,25.141,0,0,0-3.521-.7c-.885-.177-1.239-.708-.885-1.593a32.352,32.352,0,0,1,1.947-5.841,64.9,64.9,0,0,1,7.42-12.724.354.354,0,0,1,.031-.037c.517-.524.867-1.214,1.384-1.737a.328.328,0,0,0,.029-.033,6.338,6.338,0,0,1,1.4-1.575c.354-.177,1.062.354,1.593.177,2.655-.354,3.54,1.77,4.425,3.717a2.913,2.913,0,0,1,0,2.112c0,.008,0,.017-.005.025l-.336,1.906a.379.379,0,0,0,.618.355,27.841,27.841,0,0,1,2.376-1.743c1.416-.885,3.54-2.478,6.726-2.3a3.8,3.8,0,0,1,3.69,2.921.378.378,0,0,0,.088.149.3.3,0,0,1,.116.293,1.065,1.065,0,0,0,.177.708c0,.531.354.708.885.531a8.269,8.269,0,0,0,1.734-.861.38.38,0,0,1,.078-.039l2.947-1.04a.327.327,0,0,0,.038-.016,7.032,7.032,0,0,1,2.284-.7c2.478-.177,3.894.354,3.54,3.186l-.531,5.664a1.27,1.27,0,0,0,1.77,1.239c5.841-2.3,8.142-4.956,12.567-9.027a1.84,1.84,0,0,1,2.478-.177C262.326,644.612,260.909,646.028,260.909,646.028Z" transform="translate(-201.48 -633.319)" fill="#fff"/>
      <path id="Path_2" data-name="Path 2" d="M368.192,645.68a.433.433,0,0,1,.055.12,1.672,1.672,0,0,1-.728,1.706c-2.116,1.411-21.447,13.186-23.168,15.9a.345.345,0,0,0-.031.063c-.267.665-3.039,5.193-5.3,10.233-.708,1.593-1.593,3.717-2.478,5.31-2.124,4.248-4.425,7.965-6.726,12.213-4.248,7.434-8.142,13.983-13.629,20.532a41.973,41.973,0,0,1-10.266,9.912c-3.009,2.124-5.841,4.248-9.381,3.894-1.947-.177-3.009-1.77-3.009-4.6,0-1.947,1.062-3.717,2.124-5.487A164,164,0,0,1,314.6,690.339l3.523-3.875a.41.41,0,0,0,.031-.039,49.742,49.742,0,0,0,5.111-8.813c0-.01.01-.021.016-.031l5.3-9.012c1.416-2.655,2.478-5.133,3.894-7.788,0,0,.088-.153.209-.36a.379.379,0,0,0-.5-.528,4.784,4.784,0,0,0-.554.326.485.485,0,0,1-.078.051,10.772,10.772,0,0,1-7.746.51,6.257,6.257,0,0,1-1.907-.865.411.411,0,0,1-.075-.048,3.291,3.291,0,0,1-1.2-2.774.382.382,0,0,1,0-.06l.524-3.847c0-.012,0-.023.006-.035a32.631,32.631,0,0,1,3.35-8.993.338.338,0,0,1,.021-.033,40.391,40.391,0,0,0,2.112-3.7c.513-.855.861-1.546,1.363-2.23a.353.353,0,0,1,.129-.114c.565-.264,1.718.22,2.225.22a5.128,5.128,0,0,1,4.248,1.593c.354.354.531.885.885,1.239a2.431,2.431,0,0,1,.54,3.166.378.378,0,0,1-.02.04,27.611,27.611,0,0,0-1.569,4.017.4.4,0,0,1-.032.066l-1.562,2.6a.387.387,0,0,1-.028.04,22.6,22.6,0,0,0-3.678,6.643.4.4,0,0,0-.023.132v.286c.177.177.354.177.354,0a16.161,16.161,0,0,0,2.478-1.239,15.894,15.894,0,0,0,5.841-6.018l4.566-8.14.882-.988a.4.4,0,0,1,.215-.076,13.174,13.174,0,0,1,2.655,0,1.352,1.352,0,0,1,.885.354c1.586,1.057,2.821,2.29,2.832,4.4a.43.43,0,0,1,0,.057,38.944,38.944,0,0,1-.874,4.363.4.4,0,0,0-.008.066,22.632,22.632,0,0,1-1.769,5.1c-.177.177,1.416-.531,1.593-.708,1.77-1.239,15.753-8.673,17.7-9.912A1.26,1.26,0,0,1,368.192,645.68Zm-57.134,58.111c1.416-3.363,5.664-10.974,7.08-14.16A341.224,341.224,0,0,0,297.075,718.3a6.226,6.226,0,0,0-.531,3.54c0,.03,0,.06,0,.09a.38.38,0,0,0,.5.341,8.27,8.27,0,0,0,2.842-1.656l.031-.028a42.375,42.375,0,0,0,6.534-8.3A78.673,78.673,0,0,0,311.058,703.791Z" transform="translate(-267.38 -634.442)" fill="#fff"/>
      <path id="Path_3" data-name="Path 3" d="M571.772,636.94c-1.416.885-8.85.885-10.974-2.655-.169-.338-.5-.031-.837.306a.38.38,0,0,0-.077.11l-1.028,2.227-.012.024c-3.007,5.483-6.192,10.965-10.614,15.21a10.7,10.7,0,0,1-8.5,3.363,33.817,33.817,0,0,1-5.841-1.062c-1.94-.353-2.826-1.76-3.007-3.7a.415.415,0,0,1,0-.043v-1.911c0-.01,0-.019,0-.029a52.886,52.886,0,0,1,3-14.837c0-.011.009-.022.014-.033a9.976,9.976,0,0,0,.7-2.1l.007-.024c.088-.26,1.615-4.783,2.474-5.3a11.055,11.055,0,0,1,1.387-.7.351.351,0,0,1,.059-.015c1.052-.182,2.1-.694,3.155.182,1.588,1.235,3.176,2.645,3.536,4.758,0,.014,0,.028.005.042a38.216,38.216,0,0,1,.175,6.351c-.177,3.009-.708,6.195-1.062,9.2a8.4,8.4,0,0,0-.27,2.958.385.385,0,0,0,.522.287,6.112,6.112,0,0,0,1.872-1.652,75.18,75.18,0,0,0,7.434-9.381c1.77-2.478,3.54-4.779,5.31-7.08a7.706,7.706,0,0,1,1.062-1.239.678.678,0,0,1,1.062.354c1.239,5.31,8.673,5.31,10.266,4.425,0,0,.708-.354,1.062.531S571.949,636.94,571.772,636.94Z" transform="translate(-437.296 -625.47)" fill="#fff"/>
      <path id="Path_4" data-name="Path 4" d="M626.095,645.679a.426.426,0,0,1,.056.122,1.671,1.671,0,0,1-.728,1.705c-2.117,1.411-21.457,13.192-23.169,15.9a.359.359,0,0,0-.029.059c-.261.657-3.037,5.189-5.3,10.235-.708,1.593-1.593,3.717-2.478,5.31-2.124,4.248-4.425,7.965-6.726,12.213-4.248,7.434-8.142,13.983-13.629,20.532a41.982,41.982,0,0,1-10.266,9.912c-3.009,2.124-5.841,4.248-9.381,3.894-1.947-.177-3.009-1.77-3.009-4.6,0-1.947,1.062-3.717,2.124-5.487A163.989,163.989,0,0,1,572.5,690.339l3.523-3.875a.431.431,0,0,0,.031-.039,49.742,49.742,0,0,0,5.111-8.813c0-.011.01-.021.016-.031l5.3-9.012c1.416-2.655,2.478-5.133,3.894-7.788,0,0,.088-.153.209-.36a.38.38,0,0,0-.5-.528,4.838,4.838,0,0,0-.554.326.48.48,0,0,1-.078.051,10.773,10.773,0,0,1-7.746.51,6.242,6.242,0,0,1-1.905-.864.439.439,0,0,1-.077-.049,3.292,3.292,0,0,1-1.2-2.773.463.463,0,0,1,0-.06l.525-3.847a.332.332,0,0,1,.006-.035,32.627,32.627,0,0,1,3.349-8.993.354.354,0,0,1,.021-.034,40.34,40.34,0,0,0,2.112-3.7c.513-.855.861-1.545,1.363-2.23a.354.354,0,0,1,.13-.115c.566-.264,1.718.22,2.224.22a5.129,5.129,0,0,1,4.248,1.593c.354.354.531.885.885,1.239a2.431,2.431,0,0,1,.54,3.166.434.434,0,0,1-.02.041,27.644,27.644,0,0,0-1.569,4.016.4.4,0,0,1-.032.066l-1.562,2.6a.322.322,0,0,1-.028.04,22.6,22.6,0,0,0-3.678,6.643.388.388,0,0,0-.023.132v.286c.177.177.354.177.354,0a16.157,16.157,0,0,0,2.478-1.239,15.892,15.892,0,0,0,5.841-6.018l4.566-8.14.883-.988a.4.4,0,0,1,.215-.076,13.169,13.169,0,0,1,2.655,0,1.353,1.353,0,0,1,.885.354c1.585,1.057,2.82,2.29,2.832,4.4a.577.577,0,0,1,0,.058,38.993,38.993,0,0,1-.874,4.362.376.376,0,0,0-.008.067,22.639,22.639,0,0,1-1.769,5.1c-.177.177,1.416-.531,1.593-.708,1.77-1.239,15.753-8.673,17.7-9.912A1.26,1.26,0,0,1,626.095,645.679Zm-57.134,58.112c1.416-3.363,5.664-10.974,7.08-14.16A341.19,341.19,0,0,0,554.978,718.3a6.228,6.228,0,0,0-.531,3.54v.005a.427.427,0,0,0,.56.407,8.3,8.3,0,0,0,2.787-1.638l.031-.028a42.372,42.372,0,0,0,6.534-8.3A78.662,78.662,0,0,0,568.961,703.791Z" transform="translate(-452.008 -634.442)" fill="#fff"/>
    </g>
    <path id="Path_5" data-name="Path 5" d="M366.375,801.862s2.178-6.439,2.548-7.086c-1.388,2.314-2.406,3.687-2.406,3.687l-1.1,1.25s-4.042,4.4-4.273,4.721c-.046,1.065-.231,4.3-.231,4.3Z" transform="translate(-114.138 -121.203)" fill="url(#linear-gradient)"/>
    <path id="Path_6" data-name="Path 6" d="M624.366,801.317s2.352-6.655,2.722-7.3c-1.558,2.484-2.545,3.9-2.545,3.9l-1.219,1.373s-3.826,4.18-4.058,4.5c-.046,1.064-.324,4.4-.324,4.4Z" transform="translate(-298.854 -120.658)" fill="url(#linear-gradient-2)"/>
    <path id="Path_7" data-name="Path 7" d="M575.4,699.813s-2.661,8.076,2.661,4.258a33.228,33.228,0,0,0,6.711-7.521,33.286,33.286,0,0,0-4.721-.463l-2.221,2.43-.949,1S575.818,700.623,575.4,699.813Z" transform="translate(-267.208 -50.554)" fill="url(#linear-gradient-3)"/>
    <path id="Path_8" data-name="Path 8" d="M259.27,660.478a27.081,27.081,0,0,0-3.857,6.88c.771-.617,7.344-5.615,9.657-6.664-1.08-.617-3.7-1.666-3.7-1.666S259.363,660.355,259.27,660.478Z" transform="translate(-38.61 -24.024)" fill="url(#linear-gradient-4)"/>
    <path id="Path_9" data-name="Path 9" d="M330.632,667.467A13.145,13.145,0,0,1,337,664.933a6.454,6.454,0,0,1-.081,2c-.116,1.261-.463,4.895-.463,4.895l-6.2-1.134S330.62,668.173,330.632,667.467Z" transform="translate(-92.184 -28.251)" fill="url(#linear-gradient-5)"/>
    <path id="Path_10" data-name="Path 10" d="M383.5,664.35a71.452,71.452,0,0,0-2.576,7.189c-.432.324-3.24,2.607-4.042,3.07.432-1.388,1.512-5.693,1.512-5.693S382.217,665.63,383.5,664.35Z" transform="translate(-125.565 -27.834)" fill="url(#linear-gradient-6)"/>
    <path id="Path_11" data-name="Path 11" d="M732.774,694.742l-2.9,7.59s.432-1.542,12.342-9.133a25.385,25.385,0,0,0-4.5-1.049A55.414,55.414,0,0,1,732.774,694.742Z" transform="translate(-378.268 -47.735)" fill="url(#linear-gradient-7)"/>
    <path id="Path_12" data-name="Path 12" d="M475.616,694.308l-2.9,7.59s.432-1.543,12.342-9.133a25.391,25.391,0,0,0-4.5-1.049A55.394,55.394,0,0,1,475.616,694.308Z" transform="translate(-194.173 -47.425)" fill="url(#linear-gradient-7)"/>
  </g>
</svg>
