<svg xmlns="http://www.w3.org/2000/svg" xmlns:xlink="http://www.w3.org/1999/xlink" width="150.612" height="78.817" viewBox="0 0 150.612 78.817">
  <defs>
    <linearGradient id="linear-gradient" x1="0.974" y1="0.174" x2="-0.119" y2="0.925" gradientUnits="objectBoundingBox">
      <stop offset="0" stop-color="#d92628"/>
      <stop offset="0.26" stop-color="#e2413e"/>
      <stop offset="0.662" stop-color="#ef685e"/>
    </linearGradient>
    <linearGradient id="linear-gradient-2" x1="0.975" y1="0.175" x2="-0.12" y2="0.925" xlink:href="#linear-gradient"/>
    <linearGradient id="linear-gradient-3" x1="-0.062" y1="0.879" x2="0.798" y2="0.118" xlink:href="#linear-gradient"/>
    <linearGradient id="linear-gradient-4" x1="0.107" y1="0.559" x2="0.726" y2="0.378" xlink:href="#linear-gradient"/>
    <linearGradient id="linear-gradient-5" x1="0.291" y1="0.068" x2="0.778" y2="0.896" xlink:href="#linear-gradient"/>
    <linearGradient id="linear-gradient-6" x1="0.789" y1="0.435" x2="0.143" y2="0.581" xlink:href="#linear-gradient"/>
    <linearGradient id="linear-gradient-7" x1="-0.027" y1="0.525" x2="1.21" y2="0.434" xlink:href="#linear-gradient"/>
  </defs>
  <g id="Group_16" data-name="Group 16" transform="translate(-201.48 -125.054)">
    <g id="Group_15" data-name="Group 15" transform="translate(201.48 125.054)">
      <path id="Path_936" data-name="Path 936" d="M252.864,144.314a40.712,40.712,0,0,1-9.641,8.264,9.743,9.743,0,0,1-6.887.612,4.633,4.633,0,0,1-3.061-2.3,2.989,2.989,0,0,1-.306-1.663.336.336,0,0,1,0-.042l.454-3.632a.317.317,0,0,0,0-.041v-.286c-.131,0-.262.113-.394.144a.283.283,0,0,0-.116.051,35.572,35.572,0,0,0-6.989,7.3c-.306.459-1.837.612-2.755.918-1.836.459-1.53-.306-2.448-.612s-1.224-.765-.459-3.214a17.4,17.4,0,0,1,2.877-6.385.247.247,0,0,0,.036-.094,4.148,4.148,0,0,1,.3-.561,67.319,67.319,0,0,0-8.669,5.926.333.333,0,0,0-.087.1l-.878,1.61a.239.239,0,0,0-.013.028l-.428,1a.323.323,0,0,1-.068.1,3.149,3.149,0,0,0-.568.722l-1.53,2.3a5.042,5.042,0,0,1-5.8,2.452l-.032-.008a21.706,21.706,0,0,0-3.045-.607c-.765-.153-1.071-.612-.765-1.377a27.965,27.965,0,0,1,1.683-5.05,56.1,56.1,0,0,1,6.415-11,.276.276,0,0,1,.027-.032c.447-.453.749-1.05,1.2-1.5a.338.338,0,0,0,.025-.029,5.482,5.482,0,0,1,1.213-1.362c.306-.153.918.306,1.377.153,2.3-.306,3.061,1.53,3.826,3.214a2.519,2.519,0,0,1,0,1.826c0,.007,0,.014,0,.022l-.291,1.648a.327.327,0,0,0,.534.307,24.118,24.118,0,0,1,2.054-1.506,9.315,9.315,0,0,1,5.815-1.99,3.288,3.288,0,0,1,3.19,2.525.326.326,0,0,0,.076.129.256.256,0,0,1,.1.253.919.919,0,0,0,.153.612c0,.459.306.612.765.459a7.149,7.149,0,0,0,1.5-.744.3.3,0,0,1,.068-.033l2.548-.9.032-.014a6.074,6.074,0,0,1,1.975-.6c2.143-.153,3.367.306,3.061,2.755l-.459,4.9a1.1,1.1,0,0,0,1.53,1.071c5.05-1.99,7.04-4.285,10.865-7.8a1.591,1.591,0,0,1,2.143-.153C254.088,143.09,252.864,144.314,252.864,144.314Z" transform="translate(-201.48 -133.325)" fill="#ef685e"/>
      <path id="Path_937" data-name="Path 937" d="M358.085,144.226a.374.374,0,0,1,.048.1,1.445,1.445,0,0,1-.629,1.475c-1.83,1.22-18.544,11.4-20.031,13.747a.313.313,0,0,0-.027.055c-.231.575-2.627,4.49-4.58,8.848-.612,1.377-1.377,3.214-2.143,4.591-1.836,3.673-3.826,6.887-5.815,10.559-3.673,6.428-7.04,12.09-11.784,17.752a36.289,36.289,0,0,1-8.876,8.57c-2.6,1.836-5.05,3.673-8.111,3.367-1.683-.153-2.6-1.53-2.6-3.979,0-1.683.918-3.214,1.836-4.744a141.79,141.79,0,0,1,16.375-21.731l3.046-3.351a.352.352,0,0,0,.027-.034,43.01,43.01,0,0,0,4.419-7.62c0-.009.009-.018.014-.027l4.583-7.792c1.224-2.3,2.143-4.438,3.367-6.733,0,0,.076-.133.181-.311a.328.328,0,0,0-.436-.456,4.142,4.142,0,0,0-.479.282.418.418,0,0,1-.067.044,9.315,9.315,0,0,1-6.7.441,5.409,5.409,0,0,1-1.649-.748.372.372,0,0,1-.065-.042,2.846,2.846,0,0,1-1.041-2.4.328.328,0,0,1,0-.052l.453-3.326c0-.01,0-.02.005-.03a28.214,28.214,0,0,1,2.9-7.775.266.266,0,0,1,.018-.028,34.9,34.9,0,0,0,1.826-3.2c.444-.74.745-1.336,1.179-1.928a.3.3,0,0,1,.112-.1c.489-.228,1.485.19,1.923.19a4.434,4.434,0,0,1,3.673,1.377c.306.306.459.765.765,1.071a2.1,2.1,0,0,1,.466,2.737.372.372,0,0,1-.017.034,23.872,23.872,0,0,0-1.357,3.473.349.349,0,0,1-.028.057l-1.35,2.25a.308.308,0,0,1-.024.034,19.54,19.54,0,0,0-3.18,5.743.344.344,0,0,0-.02.114v.247c.153.153.306.153.306,0a13.994,13.994,0,0,0,2.143-1.071,13.745,13.745,0,0,0,5.05-5.2l3.948-7.038.763-.855a.348.348,0,0,1,.186-.065,11.389,11.389,0,0,1,2.3,0,1.169,1.169,0,0,1,.765.306c1.371.914,2.439,1.98,2.448,3.8a.365.365,0,0,1,0,.049,33.694,33.694,0,0,1-.756,3.772.34.34,0,0,0-.007.057,19.57,19.57,0,0,1-1.53,4.41c-.153.153,1.224-.459,1.377-.612,1.53-1.071,13.62-7.5,15.3-8.57A1.089,1.089,0,0,1,358.085,144.226Zm-49.4,50.244c1.224-2.908,4.9-9.488,6.121-12.243A295.069,295.069,0,0,0,296.6,207.018a5.382,5.382,0,0,0-.459,3.061c0,.026,0,.052,0,.078a.328.328,0,0,0,.436.295,7.15,7.15,0,0,0,2.458-1.432l.027-.024a36.645,36.645,0,0,0,5.65-7.18A68.034,68.034,0,0,0,308.685,194.469Z" transform="translate(-270.921 -134.509)" fill="#ef685e"/>
      <path id="Path_938" data-name="Path 938" d="M566.237,134.972c-1.224.765-7.652.765-9.488-2.3-.146-.292-.431-.027-.723.264a.328.328,0,0,0-.066.1l-.889,1.925-.01.021c-2.6,4.741-5.353,9.48-9.177,13.151a9.253,9.253,0,0,1-7.346,2.908,29.238,29.238,0,0,1-5.05-.918c-1.677-.305-2.443-1.522-2.6-3.2a.349.349,0,0,1,0-.037v-1.652c0-.008,0-.017,0-.025a45.726,45.726,0,0,1,2.6-12.828c0-.01.008-.019.012-.028a8.627,8.627,0,0,0,.6-1.811l.006-.021c.076-.225,1.4-4.135,2.139-4.581a9.525,9.525,0,0,1,1.2-.6.306.306,0,0,1,.051-.013c.909-.157,1.819-.6,2.728.157,1.373,1.068,2.746,2.287,3.058,4.114,0,.012,0,.025,0,.037a33.03,33.03,0,0,1,.152,5.491c-.153,2.6-.612,5.356-.918,7.958a7.263,7.263,0,0,0-.233,2.557.333.333,0,0,0,.451.248,5.286,5.286,0,0,0,1.618-1.428,65,65,0,0,0,6.427-8.111c1.53-2.142,3.061-4.132,4.591-6.121a6.668,6.668,0,0,1,.918-1.071.586.586,0,0,1,.918.306c1.071,4.591,7.5,4.591,8.876,3.826,0,0,.612-.306.918.459S566.39,134.972,566.237,134.972Z" transform="translate(-449.966 -125.054)" fill="#ef685e"/>
      <path id="Path_939" data-name="Path 939" d="M615.987,144.224a.374.374,0,0,1,.049.105,1.445,1.445,0,0,1-.629,1.474c-1.83,1.22-18.552,11.406-20.033,13.749a.321.321,0,0,0-.025.051c-.226.568-2.625,4.487-4.581,8.85-.612,1.377-1.377,3.214-2.143,4.591-1.836,3.673-3.826,6.887-5.815,10.559-3.673,6.428-7.04,12.09-11.784,17.752a36.294,36.294,0,0,1-8.876,8.57c-2.6,1.836-5.05,3.673-8.111,3.367-1.683-.153-2.6-1.53-2.6-3.979,0-1.683.918-3.214,1.837-4.744a141.77,141.77,0,0,1,16.375-21.731l3.046-3.351a.369.369,0,0,0,.027-.034,43.009,43.009,0,0,0,4.419-7.62l.014-.027,4.584-7.792c1.224-2.3,2.142-4.438,3.367-6.733,0,0,.076-.133.181-.311a.328.328,0,0,0-.436-.456,4.146,4.146,0,0,0-.479.282.415.415,0,0,1-.067.044,9.315,9.315,0,0,1-6.7.441,5.4,5.4,0,0,1-1.647-.747.384.384,0,0,1-.066-.043,2.847,2.847,0,0,1-1.041-2.4.4.4,0,0,1,0-.052l.454-3.326a.291.291,0,0,1,.005-.03,28.211,28.211,0,0,1,2.9-7.775.321.321,0,0,1,.018-.029,34.839,34.839,0,0,0,1.826-3.2c.444-.739.744-1.336,1.178-1.928a.305.305,0,0,1,.112-.1c.489-.228,1.485.19,1.923.19a4.435,4.435,0,0,1,3.673,1.377c.306.306.459.765.765,1.071a2.1,2.1,0,0,1,.467,2.737.339.339,0,0,1-.017.035,23.89,23.89,0,0,0-1.356,3.472.356.356,0,0,1-.027.057l-1.35,2.25a.251.251,0,0,1-.024.034,19.54,19.54,0,0,0-3.18,5.743.337.337,0,0,0-.02.114v.247c.153.153.306.153.306,0a13.99,13.99,0,0,0,2.143-1.071,13.743,13.743,0,0,0,5.05-5.2l3.948-7.038.763-.855a.349.349,0,0,1,.186-.065,11.39,11.39,0,0,1,2.3,0,1.17,1.17,0,0,1,.765.306c1.371.914,2.439,1.979,2.448,3.8a.48.48,0,0,1,0,.05,33.733,33.733,0,0,1-.756,3.771.322.322,0,0,0-.007.058,19.572,19.572,0,0,1-1.529,4.41c-.153.153,1.224-.459,1.377-.612,1.53-1.071,13.62-7.5,15.3-8.57A1.089,1.089,0,0,1,615.987,144.224Zm-49.4,50.245c1.224-2.908,4.9-9.488,6.121-12.243A295.082,295.082,0,0,0,554.5,207.018a5.385,5.385,0,0,0-.459,3.061v0a.37.37,0,0,0,.484.352,7.174,7.174,0,0,0,2.409-1.416l.027-.024a36.646,36.646,0,0,0,5.65-7.18A68.044,68.044,0,0,0,566.588,194.469Z" transform="translate(-465.47 -134.509)" fill="#ef685e"/>
    </g>
    <path id="Path_940" data-name="Path 940" d="M365.558,299.607s2.161-5.882,2.481-6.442c-1.2,2-2.281,3.481-2.281,3.481l-.88,1.08s-3.481,3.841-3.681,4.122c-.04.92-.28,3.682-.28,3.682Z" transform="translate(-120.27 -126.814)" fill="url(#linear-gradient)"/>
    <path id="Path_941" data-name="Path 941" d="M623.631,299.913s2.034-5.753,2.354-6.314c-1.347,2.147-2.2,3.375-2.2,3.375l-1.054,1.187s-3.308,3.615-3.508,3.895c-.04.92-.28,3.8-.28,3.8Z" transform="translate(-314.911 -127.141)" fill="url(#linear-gradient-2)"/>
    <path id="Path_942" data-name="Path 942" d="M575.311,198.893s-2.3,6.983,2.3,3.681a28.732,28.732,0,0,0,5.8-6.5,28.775,28.775,0,0,0-4.082-.4l-1.921,2.1-.82.86S575.672,199.594,575.311,198.893Z" transform="translate(-281.565 -53.27)" fill="url(#linear-gradient-3)"/>
    <path id="Path_943" data-name="Path 943" d="M258.748,159.867a23.414,23.414,0,0,0-3.335,5.949c.667-.534,6.349-4.855,8.35-5.762-.934-.534-3.2-1.441-3.2-1.441S258.828,159.76,258.748,159.867Z" transform="translate(-40.685 -25.315)" fill="url(#linear-gradient-4)"/>
    <path id="Path_944" data-name="Path 944" d="M330.58,166.709a11.367,11.367,0,0,1,5.5-2.191,5.578,5.578,0,0,1-.07,1.731c-.1,1.09-.4,4.232-.4,4.232l-5.362-.98S330.57,167.319,330.58,166.709Z" transform="translate(-97.138 -29.77)" fill="url(#linear-gradient-5)"/>
    <path id="Path_945" data-name="Path 945" d="M382.6,163.934a61.81,61.81,0,0,0-2.228,6.216c-.373.28-2.8,2.254-3.495,2.655.374-1.2,1.307-4.922,1.307-4.922S381.494,165.041,382.6,163.934Z" transform="translate(-132.312 -29.329)" fill="url(#linear-gradient-6)"/>
    <path id="Path_946" data-name="Path 946" d="M732.382,193.976l-2.508,6.563s.373-1.334,10.671-7.9a21.957,21.957,0,0,0-3.895-.907A47.918,47.918,0,0,1,732.382,193.976Z" transform="translate(-398.593 -50.301)" fill="url(#linear-gradient-7)"/>
    <path id="Path_947" data-name="Path 947" d="M474.79,193.976l-2.508,6.563s.373-1.334,10.671-7.9a21.958,21.958,0,0,0-3.9-.907A47.912,47.912,0,0,1,474.79,193.976Z" transform="translate(-204.279 -50.301)" fill="url(#linear-gradient-7)"/>
  </g>
</svg>
