<svg xmlns="http://www.w3.org/2000/svg" width="18.224" height="20.735" viewBox="0 0 18.224 20.735">
  <g id="svgexport-6_23_" data-name="svgexport-6 (23)" transform="translate(-31)">
    <g id="Group_311" data-name="Group 311" transform="translate(33.43)">
      <g id="Group_310" data-name="Group 310">
        <path id="Path_1030" data-name="Path 1030" d="M97.682,0a6.679,6.679,0,0,0-5.432,10.57l4.92,7.678a.607.607,0,0,0,1.023,0l4.942-7.7A6.682,6.682,0,0,0,97.682,0Zm0,9.72a3.037,3.037,0,1,1,3.037-3.037A3.041,3.041,0,0,1,97.682,9.72Z" transform="translate(-91)" fill="#b4b4b4"/>
      </g>
    </g>
    <g id="Group_313" data-name="Group 313" transform="translate(31 13.96)">
      <g id="Group_312" data-name="Group 312">
        <path id="Path_1031" data-name="Path 1031" d="M44.861,344.7,41.8,349.477a2.008,2.008,0,0,1-3.381,0L35.358,344.7c-2.7.623-4.358,1.765-4.358,3.129,0,2.368,4.695,3.645,9.112,3.645s9.112-1.277,9.112-3.645C49.224,346.46,47.56,345.318,44.861,344.7Z" transform="translate(-31 -344.695)" fill="#b4b4b4"/>
      </g>
    </g>
  </g>
</svg>
