<svg xmlns="http://www.w3.org/2000/svg" width="21.643" height="15.15" viewBox="0 0 21.643 15.15">
  <g id="svgexport-6_16_" data-name="svgexport-6 (16)" transform="translate(0 -28.429)">
    <g id="Group_85" data-name="Group 85" transform="translate(0 28.429)">
      <g id="Group_81" data-name="Group 81" transform="translate(2.164)">
        <path id="Path_1015" data-name="Path 1015" d="M23.213,31.134a2.164,2.164,0,1,1,0-1.082H37.89a.541.541,0,1,1,0,1.082ZM22.2,30.593a1.082,1.082,0,1,1-1.082-1.082A1.082,1.082,0,0,1,22.2,30.593Z" transform="translate(-18.953 -28.429)" fill="#707070" fill-rule="evenodd"/>
      </g>
      <g id="Group_82" data-name="Group 82" transform="translate(0 1.623)">
        <path id="Path_1016" data-name="Path 1016" d="M.541,43.725H2.232a2.181,2.181,0,0,1,0-1.082H.541a.541.541,0,0,0,0,1.082Z" transform="translate(0 -42.643)" fill="#707070"/>
      </g>
      <g id="Group_83" data-name="Group 83" transform="translate(0 10.821)">
        <path id="Path_1017" data-name="Path 1017" d="M12.917,124.814a2.165,2.165,0,0,0-4.192,0H.541a.541.541,0,0,0,0,1.082H8.725a2.165,2.165,0,0,0,4.192,0H21.1a.541.541,0,0,0,0-1.082Zm-2.1,1.623a1.082,1.082,0,1,0-1.082-1.082A1.082,1.082,0,0,0,10.821,126.437Z" transform="translate(0 -123.191)" fill="#707070" fill-rule="evenodd"/>
      </g>
      <g id="Group_84" data-name="Group 84" transform="translate(0 5.411)">
        <path id="Path_1018" data-name="Path 1018" d="M19.41,77.433a2.165,2.165,0,0,0-4.192,0H.541a.541.541,0,1,0,0,1.082H15.218a2.165,2.165,0,0,0,4.192,0H21.1a.541.541,0,1,0,0-1.082Zm-2.1,1.623a1.082,1.082,0,1,0-1.082-1.082A1.082,1.082,0,0,0,17.314,79.056Z" transform="translate(0 -75.81)" fill="#707070" fill-rule="evenodd"/>
      </g>
    </g>
  </g>
</svg>
