<svg xmlns="http://www.w3.org/2000/svg" width="20.108" height="20.109" viewBox="0 0 20.108 20.109">
  <g id="svgexport-6_25_" data-name="svgexport-6 (25)" transform="translate(-0.02 0)">
    <g id="Group_317" data-name="Group 317" transform="translate(0.02 0)">
      <g id="Group_316" data-name="Group 316" transform="translate(0 0)">
        <g id="Group_315" data-name="Group 315">
          <path id="Path_1033" data-name="Path 1033" d="M19.12,16.551a1.212,1.212,0,0,0-.467-.832l-3.875-3a2.031,2.031,0,0,0-2.267-.153l-.713.412a1.228,1.228,0,0,1-1.369-.09,23.751,23.751,0,0,1-2.259-1.968A23.471,23.471,0,0,1,6.233,8.7a1.228,1.228,0,0,1-.087-1.367l.412-.714a2.032,2.032,0,0,0-.152-2.267L3.41.476A1.22,1.22,0,0,0,1.666.281c-.658.543-1.5,1.252-1.8,1.547A3.388,3.388,0,0,0-.98,4.436c0,1.439,2.641,6.791,5.823,9.839,3.059,3.193,8.411,5.834,9.851,5.834A3.381,3.381,0,0,0,17.3,19.26c.318-.317,1.106-1.263,1.547-1.8A1.211,1.211,0,0,0,19.12,16.551Zm-.893.4c-.736.892-1.281,1.527-1.5,1.741a2.544,2.544,0,0,1-2.039.613c-1.1,0-6.292-2.477-9.283-5.6C2.3,10.727-.176,5.541-.176,4.436A2.544,2.544,0,0,1,.438,2.4c.212-.212.83-.743,1.741-1.5a.412.412,0,0,1,.265-.1l.047,0a.413.413,0,0,1,.284.16l3,3.874a1.233,1.233,0,0,1,.092,1.374l-.412.714A2.03,2.03,0,0,0,5.6,9.189a24.123,24.123,0,0,0,2.008,2.3A24.6,24.6,0,0,0,9.94,13.529a2.028,2.028,0,0,0,2.262.15h0l.713-.412a1.232,1.232,0,0,1,1.373.093l3.874,2.995a.417.417,0,0,1,.159.285A.409.409,0,0,1,18.227,16.951Z" transform="translate(0.98 0)"/>
          <path id="Path_1034" data-name="Path 1034" d="M347.829,21.283a7.641,7.641,0,0,1,4.569,4.57.4.4,0,0,0,.378.265.388.388,0,0,0,.137-.025.4.4,0,0,0,.24-.516,8.437,8.437,0,0,0-5.05-5.05.4.4,0,1,0-.275.755Z" transform="translate(-333.875 -19.698)"/>
          <path id="Path_1035" data-name="Path 1035" d="M319.766,98.276a4.449,4.449,0,0,1,2.645,2.646.4.4,0,0,0,.758-.273,5.268,5.268,0,0,0-3.13-3.13.4.4,0,1,0-.273.756Z" transform="translate(-306.913 -93.667)"/>
          <path id="Path_1036" data-name="Path 1036" d="M291.742,175.274a1.191,1.191,0,0,1,.721.722.4.4,0,0,0,.379.267.384.384,0,0,0,.135-.024.4.4,0,0,0,.244-.514,1.988,1.988,0,0,0-1.209-1.208.4.4,0,1,0-.27.757Z" transform="translate(-279.989 -167.64)"/>
        </g>
      </g>
    </g>
  </g>
</svg>
