<svg xmlns="http://www.w3.org/2000/svg" width="7.974" height="12.007" viewBox="0 0 7.974 12.007">
  <g id="svgexport-6_15_" data-name="svgexport-6 (15)" transform="translate(-85.996)">
    <g id="Group_74" data-name="Group 74" transform="translate(89.77 0.938)">
      <g id="Group_73" data-name="Group 73" transform="translate(0)">
        <path id="Path_1011" data-name="Path 1011" d="M247.136,40a.235.235,0,1,0,.233.236A.235.235,0,0,0,247.136,40Z" transform="translate(-246.9 -40.005)" fill="#707070"/>
      </g>
    </g>
    <g id="Group_76" data-name="Group 76" transform="translate(88.341 2.345)">
      <g id="Group_75" data-name="Group 75">
        <path id="Path_1012" data-name="Path 1012" d="M187.653,100a1.642,1.642,0,0,0-.025,3.283h.013a1.642,1.642,0,0,0,.012-3.283Zm-.012,2.814h-.009a1.173,1.173,0,0,1,.009-2.345h.009a1.173,1.173,0,0,1-.009,2.345Z" transform="translate(-185.999 -100.002)" fill="#707070"/>
      </g>
    </g>
    <g id="Group_78" data-name="Group 78" transform="translate(90.693 1.102)">
      <g id="Group_77" data-name="Group 77">
        <path id="Path_1013" data-name="Path 1013" d="M286.6,47.025a.235.235,0,1,0-.157.442,2.577,2.577,0,0,1,1.713,2.448.235.235,0,0,0,.233.236h0a.235.235,0,0,0,.234-.233A3.046,3.046,0,0,0,286.6,47.025Z" transform="translate(-286.287 -47.011)" fill="#707070"/>
      </g>
    </g>
    <g id="Group_80" data-name="Group 80" transform="translate(85.996)">
      <g id="Group_79" data-name="Group 79" transform="translate(0)">
        <path id="Path_1014" data-name="Path 1014" d="M91.422,8.828c1.56-2.008,2.535-3.055,2.548-4.811A3.987,3.987,0,1,0,86,3.957c-.013,1.8.979,2.85,2.55,4.871-1.562.233-2.55.82-2.55,1.538,0,.481.444.912,1.251,1.215a8.976,8.976,0,0,0,5.471,0c.807-.3,1.251-.734,1.251-1.215C93.97,9.648,92.983,9.062,91.422,8.828ZM86.465,3.96a3.518,3.518,0,1,1,7.035.053c-.012,1.668-1.046,2.7-2.7,4.848-.294.384-.565.746-.821,1.1-.255-.355-.52-.711-.819-1.1C87.446,6.619,86.453,5.669,86.465,3.96Zm3.518,7.578c-2.013,0-3.518-.619-3.518-1.173,0-.41.9-.929,2.411-1.109.334.439.627.837.915,1.244a.234.234,0,0,0,.191.1h0a.235.235,0,0,0,.191-.1c.285-.4.586-.81.917-1.244,1.511.18,2.409.7,2.409,1.108C93.5,10.919,92,11.538,89.983,11.538Z" transform="translate(-85.996)" fill="#707070"/>
      </g>
    </g>
  </g>
</svg>
