<svg xmlns="http://www.w3.org/2000/svg" width="13.354" height="20.109" viewBox="0 0 13.354 20.109">
  <g id="svgexport-6_15_" data-name="svgexport-6 (15)" transform="translate(-85.996)">
    <g id="Group_74" data-name="Group 74" transform="translate(92.316 1.571)">
      <g id="Group_73" data-name="Group 73" transform="translate(0)">
        <path id="Path_1011" data-name="Path 1011" d="M247.3,40a.393.393,0,1,0,.39.4A.393.393,0,0,0,247.3,40Z" transform="translate(-246.9 -40.005)"/>
      </g>
    </g>
    <g id="Group_76" data-name="Group 76" transform="translate(89.924 3.928)">
      <g id="Group_75" data-name="Group 75">
        <path id="Path_1012" data-name="Path 1012" d="M188.769,100a2.749,2.749,0,1,0-.041,5.5h.021a2.749,2.749,0,0,0,.02-5.5Zm-.02,4.713h-.015a1.964,1.964,0,0,1,.014-3.928h.015a1.964,1.964,0,0,1-.014,3.928Z" transform="translate(-185.999 -100.002)"/>
      </g>
    </g>
    <g id="Group_78" data-name="Group 78" transform="translate(93.863 1.846)">
      <g id="Group_77" data-name="Group 77">
        <path id="Path_1013" data-name="Path 1013" d="M286.811,47.034a.393.393,0,1,0-.262.74,4.315,4.315,0,0,1,2.869,4.1.393.393,0,0,0,.39.4h0a.393.393,0,0,0,.393-.39A5.1,5.1,0,0,0,286.811,47.034Z" transform="translate(-286.287 -47.011)"/>
      </g>
    </g>
    <g id="Group_80" data-name="Group 80" transform="translate(85.996)">
      <g id="Group_79" data-name="Group 79" transform="translate(0)">
        <path id="Path_1014" data-name="Path 1014" d="M95.083,14.785c2.612-3.363,4.245-5.116,4.267-8.058A6.677,6.677,0,1,0,86,6.627c-.022,3.022,1.64,4.773,4.271,8.158C87.651,15.176,86,16.158,86,17.36c0,.805.744,1.527,2.1,2.034a15.032,15.032,0,0,0,9.163,0c1.351-.507,2.1-1.229,2.1-2.034C99.35,16.159,97.7,15.176,95.083,14.785Zm-8.3-8.152a5.892,5.892,0,1,1,11.783.088c-.021,2.794-1.752,4.516-4.516,8.119-.493.642-.946,1.25-1.374,1.844-.427-.594-.871-1.191-1.371-1.844C88.424,11.086,86.761,9.494,86.782,6.633Zm5.891,12.691c-3.372,0-5.891-1.037-5.891-1.964,0-.687,1.506-1.556,4.039-1.857.56.734,1.051,1.4,1.532,2.083a.393.393,0,0,0,.32.166h0a.393.393,0,0,0,.32-.166c.477-.673.981-1.356,1.536-2.083,2.53.3,4.035,1.169,4.035,1.856C98.565,18.287,96.045,19.324,92.673,19.324Z" transform="translate(-85.996)"/>
      </g>
    </g>
  </g>
</svg>
