<svg id="svgexport-6_14_" data-name="svgexport-6 (14)" xmlns="http://www.w3.org/2000/svg" width="13.605" height="13.605" viewBox="0 0 13.605 13.605">
  <g id="Group_66" data-name="Group 66" transform="translate(7.972 5.049)">
    <g id="Group_65" data-name="Group 65">
      <path id="Path_1007" data-name="Path 1007" d="M300.266,190a.266.266,0,1,0,.266.266A.266.266,0,0,0,300.266,190Z" transform="translate(-300 -190)"/>
    </g>
  </g>
  <g id="Group_68" data-name="Group 68">
    <g id="Group_67" data-name="Group 67">
      <path id="Path_1008" data-name="Path 1008" d="M13.293,11.79,9.747,8.244a5.267,5.267,0,0,0,.882-2.929,5.314,5.314,0,1,0-5.314,5.314,5.267,5.267,0,0,0,2.929-.882l.98.98h0l2.566,2.566a1.063,1.063,0,1,0,1.5-1.5Zm-5.175-2.6h0A4.788,4.788,0,1,1,9.187,8.119,4.806,4.806,0,0,1,8.119,9.187Zm.557.241a5.332,5.332,0,0,0,.751-.751l.754.754a6.45,6.45,0,0,1-.751.751Zm4.241,3.49a.531.531,0,0,1-.751,0L9.807,10.558a6.982,6.982,0,0,0,.751-.751l2.36,2.36a.531.531,0,0,1,0,.751Z"/>
    </g>
  </g>
  <g id="Group_70" data-name="Group 70" transform="translate(1.063 1.063)">
    <g id="Group_69" data-name="Group 69">
      <path id="Path_1009" data-name="Path 1009" d="M44.251,40A4.251,4.251,0,1,0,48.5,44.251,4.256,4.256,0,0,0,44.251,40Zm0,7.972a3.72,3.72,0,1,1,3.72-3.72A3.724,3.724,0,0,1,44.251,47.972Z" transform="translate(-40 -40)"/>
    </g>
  </g>
  <g id="Group_72" data-name="Group 72" transform="translate(5.049 2.126)">
    <g id="Group_71" data-name="Group 71">
      <path id="Path_1010" data-name="Path 1010" d="M193.243,82.048A3.194,3.194,0,0,0,190.266,80a.266.266,0,1,0,0,.531,2.675,2.675,0,0,1,2.482,1.707.266.266,0,1,0,.5-.191Z" transform="translate(-190 -80)"/>
    </g>
  </g>
</svg>
