<svg xmlns="http://www.w3.org/2000/svg" width="13.826" height="13.826" viewBox="0 0 13.826 13.826">
  <path id="Path_1042" data-name="Path 1042" d="M13.707.119a.405.405,0,0,0-.4-.1L.913,3.735A1.274,1.274,0,0,0,.918,6.18l5.233,1.5,1.5,5.233a1.274,1.274,0,0,0,2.445.005L13.809.522a.4.4,0,0,0-.1-.4ZM.81,4.962a.468.468,0,0,1,.336-.451L12,1.255,6.361,6.892,1.141,5.4A.458.458,0,0,1,.81,4.962Zm8.505,7.719a.468.468,0,0,1-.451.336.458.458,0,0,1-.439-.331L6.934,7.465l5.637-5.637Z" transform="translate(0 0)" fill="#f37f72"/>
</svg>
