<svg xmlns="http://www.w3.org/2000/svg" width="18.561" height="20.735" viewBox="0 0 18.561 20.735">
  <g id="svgexport-6_20_" data-name="svgexport-6 (20)" transform="translate(-24.165)">
    <g id="Group_309" data-name="Group 309" transform="translate(24.165)">
      <g id="Group_308" data-name="Group 308" transform="translate(0)">
        <g id="Group_307" data-name="Group 307">
          <path id="Path_1024" data-name="Path 1024" d="M116.176,10.767a5.384,5.384,0,1,0-5.384-5.384A5.4,5.4,0,0,0,116.176,10.767Z" transform="translate(-106.894)" fill="#b4b4b4"/>
          <path id="Path_1025" data-name="Path 1025" d="M42.686,251.758a5.019,5.019,0,0,0-.541-.987,6.692,6.692,0,0,0-4.631-2.915.991.991,0,0,0-.682.165,5.739,5.739,0,0,1-6.771,0,.882.882,0,0,0-.682-.165,6.643,6.643,0,0,0-4.631,2.915,5.786,5.786,0,0,0-.541.987.5.5,0,0,0,.023.447,9.381,9.381,0,0,0,.635.94,8.934,8.934,0,0,0,1.081,1.222,14.086,14.086,0,0,0,1.081.94,10.721,10.721,0,0,0,12.789,0,10.335,10.335,0,0,0,1.081-.94,10.856,10.856,0,0,0,1.081-1.222,8.243,8.243,0,0,0,.635-.94A.4.4,0,0,0,42.686,251.758Z" transform="translate(-24.165 -236.688)" fill="#b4b4b4"/>
        </g>
      </g>
    </g>
  </g>
</svg>
